<svg xmlns="http://www.w3.org/2000/svg" version="1.1" xmlns:xlink="http://www.w3.org/1999/xlink" xmlns:svgjs="http://svgjs.dev/svgjs" width="1500" height="488" viewBox="0 0 1500 488"><g transform="matrix(1,0,0,1,-0.908618914143517,0.3450189359450633)"><svg viewBox="0 0 396 129" data-background-color="#ffffff" preserveAspectRatio="xMidYMid meet" height="488" width="1500" xmlns="http://www.w3.org/2000/svg" xmlns:xlink="http://www.w3.org/1999/xlink"><g id="tight-bounds" transform="matrix(1,0,0,1,0.24012460666608604,-0.09120377610022956)"><svg viewBox="0 0 395.52 129.18199838111664" height="129.18199838111664" width="395.52"><g><svg viewBox="0 0 395.52 129.18199838111664" height="129.18199838111664" width="395.52"><g transform="matrix(1,0,0,1,0,66.63979523608042)"><svg viewBox="0 0 395.52 62.54220314503623" height="62.54220314503623" width="395.52"><g id="textblocktransform"><svg viewBox="0 0 395.52 62.54220314503623" height="62.54220314503623" width="395.52" id="textblock"><g><svg viewBox="0 0 395.52 62.54220314503623" height="62.54220314503623" width="395.52"><g transform="matrix(1,0,0,1,0,0)"><svg width="395.52" viewBox="-2.2948100000000036 -17.07897 301.54405999999994 47.68209799799059" height="62.54220314503623" data-palette-color="#3f664e"><path d="M-1.937 12.838v0c0.569-2.912 1.695-5.303 3.378-7.176 1.689-1.864 3.23-2.66 4.624-2.388v0c0.36 0.07 0.701 0.256 1.022 0.557v0l0.078 0.382c-0.593 0.74-1.061 1.729-1.404 2.965v0l-0.333 0.139c-0.125-0.092-0.367-0.174-0.727-0.244-0.366-0.072-0.945 0.023-1.736 0.283-0.785 0.261-1.415 0.549-1.891 0.863v0c-0.32 0.42-0.538 0.927-0.654 1.523v0c-0.304 1.557 0.486 3.094 2.37 4.61 1.883 1.523 3.799 2.474 5.75 2.855v0c4.076 0.796 6.567-1.122 7.471-5.754v0c0.343-1.754-0.899-4.282-3.725-7.585v0c-1.174-1.398-2.344-2.795-3.511-4.191v0c-2.826-3.303-4.048-5.929-3.668-7.879v0c0.452-2.316 1.918-4.272 4.396-5.866 2.472-1.596 5.123-2.599 7.955-3.011v0c2.846 0.556 5.487 1.364 7.922 2.424v0l-0.193 0.991c-2.031 1.254-3.469 3.517-4.312 6.789v0l-1.237-0.241c0.343-1.754 0.558-3.308 0.646-4.663v0c-1.291-0.938-2.774-1.571-4.448-1.898-1.668-0.326-3.151-0.249-4.447 0.232-1.297 0.487-2.053 1.277-2.267 2.369-0.213 1.093 0.059 2.287 0.819 3.584 0.758 1.303 1.732 2.61 2.922 3.923 1.184 1.311 2.357 2.641 3.52 3.989 1.164 1.341 2.113 2.729 2.845 4.162 0.732 1.434 0.985 2.729 0.759 3.888v0c-0.645 3.304-2.13 6.071-4.454 8.3-2.323 2.223-5.184 3.674-8.584 4.355v0c-4.051-1.24-7.132-3.044-9.244-5.413v0c0.051-0.955 0.17-1.913 0.358-2.874zM46.243 7.362v0l-0.372 2.341c-0.724 4.563-1.101 8.003-1.131 10.32v0c1.503 0.441 2.733 0.876 3.691 1.305v0l-0.345 1.221c-1.596-0.49-3.254-0.871-4.973-1.143-1.712-0.272-2.892-0.408-3.539-0.41v0l-0.104-0.685c0.355-0.281 0.706-1.197 1.054-2.749v0c-2.017 1.523-4.224 2.523-6.622 3v0c-5.728-0.909-8.051-4.777-6.967-11.606v0c0.238-1.501 0.738-3.882 1.498-7.143 0.753-3.256 1.174-5.167 1.264-5.733 0.09-0.566 0.078-1.132-0.035-1.696v0l0.008-0.05c-1.365-0.46-2.441-0.887-3.229-1.282v0l0.412-1.321c1.886 0.576 3.613 0.988 5.18 1.237 1.567 0.249 2.865 0.367 3.893 0.354v0l0.062 0.881c-1.3 0.449-2.183 1.486-2.65 3.113v0c-0.903 3.137-1.621 6.388-2.155 9.753-0.534 3.365-0.521 5.817 0.037 7.357 0.552 1.539 1.905 2.479 4.059 2.82 2.146 0.341 3.982 0.001 5.507-1.019v0c0.555-2.646 1.12-5.783 1.696-9.411 0.577-3.635 0.987-7.069 1.23-10.304v0c-1.474-0.409-2.817-0.879-4.029-1.409v0l0.347-1.231c1.694 0.512 3.618 0.939 5.771 1.28 2.146 0.341 4.091 0.511 5.832 0.511v0l-0.009 1.335c-0.982 0.148-2.072 0.232-3.27 0.25v0c-0.683 2.18-1.387 5.551-2.111 10.114zM64.924 23.266l-0.305 1.233c-1.714-0.435-3.651-0.779-5.81-1.03-2.159-0.252-4.108-0.345-5.847-0.28v0l-0.047-1.324c1.112-0.212 2.145-0.347 3.098-0.404v0c0.609-2.573 1.16-5.972 1.654-10.197v0l0.275-2.354c0.524-4.49 0.758-7.959 0.701-10.409v0c-0.888-0.211-1.946-0.606-3.174-1.186v0l0.312-1.292c1.864 0.593 3.842 1.012 5.935 1.256 2.092 0.244 3.606 0.3 4.541 0.168v0l-0.001 0.866c-0.935 0.132-1.434 0.467-1.496 1.003v0c-0.046 0.397 0.249 1.288 0.886 2.671 0.637 1.383 1.253 2.72 1.848 4.011v0c1.801 3.774 3.909 8.4 6.323 13.877v0l0.171-0.081 0.715-6.128c0.524-4.49 0.683-7.894 0.478-10.214-0.207-2.313-0.858-3.721-1.954-4.225v0l0.199-0.842c0.854 0.274 2.152 0.513 3.894 0.716 1.742 0.203 3.554 0.227 5.438 0.071v0l-0.004 1.328c-1.421 0.27-2.608 0.404-3.56 0.4v0c-0.65 2.636-1.222 6.066-1.715 10.291v0l-0.275 2.354c-0.594 5.092-0.828 8.562-0.702 10.409v0c1.376 0.402 2.467 0.801 3.274 1.197v0l-0.302 1.294c-1.632-0.566-3.186-0.936-4.663-1.108-1.47-0.172-2.617-0.238-3.44-0.2v0c0.086-0.735-0.28-2.033-1.096-3.894-0.816-1.861-1.567-3.509-2.252-4.944v0c-2.196-4.706-4.337-9.474-6.425-14.302v0l-0.211 0.076-0.786 6.735c-0.778 6.668-0.782 11.064-0.009 13.188v0c1.484 0.341 2.928 0.765 4.332 1.27zM88.099 22.719c1.498 0.761 3.004 1.202 4.519 1.322 1.509 0.12 2.746-0.14 3.714-0.779 0.96-0.633 1.492-1.604 1.595-2.912v0c0.107-1.342-1.658-3.158-5.295-5.447v0c-1.39-0.853-2.638-1.855-3.744-3.006-1.112-1.158-1.626-2.259-1.543-3.302v0c0.142-1.781 1.228-3.504 3.26-5.169 2.025-1.665 4.053-2.738 6.084-3.218v0c2.492 0.198 4.725 0.63 6.698 1.295v0l-0.072 0.907c-1.521 1.297-2.465 3.168-2.833 5.613v0l-1.256-0.1c0.075-0.944 0.085-2.127 0.031-3.548v0c-1.134-0.632-2.375-1.001-3.724-1.109-1.342-0.107-2.482 0.097-3.419 0.611-0.938 0.521-1.45 1.336-1.539 2.446v0c-0.061 0.771 0.467 1.656 1.585 2.654 1.124 1.006 2.362 1.916 3.715 2.733 1.359 0.824 2.592 1.801 3.7 2.932 1.113 1.138 1.629 2.229 1.545 3.273v0c-0.16 2.014-1.21 3.95-3.15 5.809-1.94 1.859-4.019 3.108-6.236 3.747v0c-2.12-0.168-4.084-0.579-5.891-1.23v0c-0.557 0.19-1.142 0.531-1.757 1.024v0l-0.855-0.73c2.043-1.897 3.288-4.35 3.735-7.357v0l1.256 0.1c-0.093 1.176-0.134 2.323-0.123 3.441zM122.965 3.134l0.257-1.311c1.707 0.348 3.645 0.568 5.817 0.663 2.171 0.094 4.138 0.059 5.9-0.105v0l0.095 1.275c-1.293 0.278-2.7 0.47-4.219 0.578v0c-0.43 2.07-0.749 5.499-0.957 10.289v0l-0.102 2.367c-0.21 4.855-0.189 8.3 0.063 10.333v0c1.505 0.232 2.889 0.546 4.153 0.94v0l-0.205 1.253c-1.742-0.309-3.698-0.511-5.869-0.605-2.171-0.094-4.122-0.045-5.852 0.147v0l-0.143-1.317c0.952-0.266 2.022-0.473 3.21-0.622v0c0.438-3.791 0.756-7.591 0.954-11.399v0c-2.149-0.293-4.133-0.479-5.951-0.559-1.818-0.079-3.794-0.064-5.927 0.044v0c-0.241 5.561-0.253 9.375-0.036 11.439v0c1.505 0.232 2.889 0.546 4.153 0.941v0l-0.204 1.252c-1.742-0.309-3.698-0.511-5.869-0.605-2.171-0.094-4.122-0.045-5.852 0.147v0l-0.143-1.317c0.952-0.266 2.022-0.473 3.21-0.622v0c0.411-2.411 0.714-5.841 0.906-10.29v0l0.103-2.368c0.193-4.449 0.172-7.893-0.063-10.332v0c-1.17-0.258-2.218-0.557-3.144-0.897v0l0.257-1.311c1.707 0.348 3.645 0.568 5.817 0.663 2.171 0.094 4.138 0.059 5.9-0.105v0l0.094 1.276c-1.293 0.278-2.7 0.47-4.219 0.577v0c-0.358 1.94-0.625 4.948-0.801 9.024v0c1.873 0.355 3.899 0.579 6.077 0.674 2.171 0.094 4.105 0.058 5.8-0.109v0c0.091-2.865 0.069-5.903-0.066-9.111v0c-1.17-0.258-2.218-0.557-3.144-0.897zM145.981 4.497v0c-0.293 1.817-0.471 5.538-0.534 11.164-0.062 5.633 0.047 9.581 0.329 11.845v0c1.511 0.183 2.905 0.452 4.182 0.806v0l-0.164 1.258c-1.751-0.253-3.713-0.391-5.886-0.415-2.173-0.024-4.121 0.088-5.844 0.336v0l-0.186-1.313c0.943-0.296 2.006-0.538 3.189-0.724v0c0.334-2.423 0.525-5.861 0.574-10.315v0l0.026-2.369c0.049-4.453-0.083-7.895-0.396-10.325v0c-1.178-0.22-2.235-0.485-3.171-0.796v0l0.215-1.317c1.717 0.292 3.662 0.451 5.835 0.474 2.173 0.024 4.138-0.074 5.893-0.294v0l0.136 1.271c-1.284 0.319-2.683 0.557-4.198 0.714zM166.15 27.982l-0.133 1.263c-1.758-0.196-3.723-0.272-5.896-0.226-2.173 0.046-4.116 0.22-5.831 0.522v0l-0.227-1.305c1.073-0.363 2.077-0.637 3.013-0.824v0c0.251-2.633 0.333-6.075 0.244-10.327v0l-0.05-2.37c-0.095-4.519-0.338-7.988-0.729-10.407v0c-0.909-0.088-2.011-0.335-3.306-0.74v0l0.132-1.324c1.927 0.333 3.944 0.477 6.051 0.434 2.106-0.044 3.613-0.196 4.521-0.455v0l0.118 0.857c-0.908 0.259-1.356 0.659-1.345 1.199v0c0.008 0.4 0.423 1.241 1.243 2.524 0.82 1.283 1.613 2.523 2.379 3.721v0c2.3 3.492 5.021 7.786 8.162 12.882v0l0.158-0.104-0.13-6.168c-0.095-4.519-0.403-7.913-0.924-10.183-0.521-2.263-1.359-3.569-2.512-3.918v0l0.082-0.862c0.883 0.155 2.202 0.214 3.954 0.177 1.753-0.037 3.552-0.261 5.397-0.674v0l0.178 1.317c-1.371 0.462-2.528 0.757-3.472 0.883v0c-0.283 2.7-0.38 6.176-0.292 10.428v0l0.05 2.37c0.108 5.126 0.35 8.595 0.729 10.407v0c1.418 0.21 2.553 0.457 3.406 0.739v0l-0.122 1.322c-1.694-0.338-3.284-0.491-4.771-0.46-1.48 0.031-2.625 0.122-3.435 0.273v0c-0.016-0.74-0.555-1.975-1.618-3.707-1.063-1.731-2.032-3.261-2.907-4.59v0c-2.819-4.362-5.592-8.791-8.321-13.289v0l-0.198 0.105 0.143 6.778c0.141 6.712 0.739 11.067 1.794 13.065v0c1.516 0.135 3.005 0.357 4.465 0.667zM189.551 15.566c0.277 2.989 0.972 5.295 2.083 6.919 1.105 1.624 2.868 2.364 5.291 2.22 2.429-0.144 4.607-1.305 6.535-3.483v0l0.751 0.667c-2.086 2.995-4.678 5.126-7.775 6.392v0c-3.268 0.194-5.888-0.689-7.861-2.65-1.973-1.96-3.064-4.7-3.272-8.22-0.209-3.52 0.686-6.893 2.685-10.117 2.006-3.224 4.68-5.427 8.023-6.607v0c2.456-0.146 5.249-0.058 8.381 0.265v0l0.015 1.111c-0.646 0.038-1.247 0.194-1.805 0.467v0c-0.549 1.549-0.862 3.374-0.938 5.475v0l-1.257 0.075c-0.341-1.128-0.547-2.298-0.619-3.509v0c-1.316-0.563-2.849-0.793-4.599-0.689-1.75 0.104-3.17 0.659-4.259 1.665v0c-1.021 2.158-1.528 4.689-1.523 7.593v0c1.425 0.149 2.946 0.176 4.563 0.08v0c2.795-0.166 4.444-0.855 4.946-2.066v0l1.067 0.087c-0.246 1.03-0.34 2.034-0.282 3.012 0.058 0.978 0.249 2.166 0.572 3.562v0l-1.206 0.272c-0.426-0.99-0.757-2.015-0.994-3.077v0c-1.353-0.06-2.694-0.051-4.025 0.029-1.324 0.079-2.823 0.254-4.497 0.527zM224.755 23.528c0.71 0.944 1.647 1.682 2.81 2.215 1.157 0.541 2.465 0.734 3.923 0.579 1.458-0.155 2.888-0.739 4.289-1.752 1.401-1.014 2.537-2.21 3.41-3.59v0l0.781 0.631c-2.041 4.078-5.084 7.046-9.131 8.904v0c-2.884 0.306-5.326-0.182-7.326-1.465-1.999-1.276-3.5-3.031-4.501-5.264-1.001-2.233-1.682-5.044-2.042-8.432-0.36-3.388-0.273-6.645 0.26-9.772 0.533-3.127 1.728-6.016 3.585-8.667 1.856-2.658 4.311-4.608 7.364-5.85v0c3.388-0.36 6.875-0.408 10.463-0.146v0l0.068 1.119c-0.868 0.092-1.658 0.327-2.369 0.705v0c-0.625 2.071-0.927 4.493-0.908 7.266v0l-1.253 0.133c-0.472-1.539-0.784-3.031-0.937-4.476v0c-1.879-0.779-3.883-1.056-6.012-0.83-2.128 0.226-3.811 1.048-5.047 2.467v0c-1.344 3.636-1.727 8.168-1.151 13.597v0c0.645 6.073 1.886 10.282 3.724 12.628zM248.172-2.281v0c-0.031 1.84 0.324 5.549 1.066 11.127 0.743 5.584 1.415 9.476 2.017 11.676v0c1.522-0.034 2.94 0.033 4.253 0.201v0l0.018 1.269c-1.769 0-3.73 0.143-5.885 0.429-2.154 0.286-4.066 0.675-5.736 1.166v0l-0.371-1.272c0.891-0.428 1.909-0.819 3.052-1.172v0c-0.016-2.446-0.317-5.876-0.905-10.291v0l-0.312-2.349c-0.587-4.414-1.209-7.802-1.866-10.163v0c-1.197-0.049-2.281-0.161-3.252-0.334v0l0.024-1.335c1.741 0.044 3.689-0.077 5.843-0.363 2.154-0.286 4.085-0.664 5.791-1.134v0l0.316 1.24c-1.225 0.499-2.576 0.934-4.053 1.305zM271.949-4.951v0c-1.257-0.377-2.415-0.479-3.474-0.307-1.066 0.173-1.773 0.356-2.12 0.547v0c0.029 1.839 0.462 5.338 1.301 10.497 0.838 5.159 1.663 9.091 2.473 11.796v0c1.527-0.079 2.95-0.054 4.268 0.077v0l0.054 1.268c-1.768 0.051-3.777 0.259-6.028 0.624-2.244 0.365-4.193 0.816-5.849 1.356v0l-0.407-1.261c0.633-0.305 1.74-0.742 3.323-1.31v0c-0.093-2.443-0.497-5.863-1.211-10.259v0l-0.38-2.339c-0.38-2.336-1.091-5.571-2.133-9.704v0c-0.39-0.072-1.085-0.026-2.086 0.137-0.994 0.161-2.018 0.568-3.074 1.218v0c-0.168 1.088-0.177 2.507-0.027 4.26v0l-1.303 0.212c-0.444-2.731-1.235-4.774-2.374-6.129v0l0.109-0.889c2.621-0.081 6.244-0.498 10.871-1.249 4.626-0.752 8.324-1.541 11.093-2.37v0l0.45 0.899c-0.677 1.069-1.096 2.069-1.255 3.001-0.159 0.931-0.15 2.152 0.028 3.663v0l-1.244 0.202c-0.415-1.06-0.75-2.374-1.005-3.94zM291.171-9.632v0c-0.104-0.53-0.624-0.809-1.559-0.836v0l0.031-0.883c1.028-0.025 2.343-0.194 3.946-0.507 1.609-0.315 3.346-0.794 5.21-1.438v0l0.45 1.257c-0.799 0.462-1.843 0.925-3.131 1.387v0l-5.805 14.017c0.843 4.305 1.671 7.665 2.483 10.081v0c1.491-0.122 2.897-0.139 4.219-0.052v0l0.094 1.265c-1.766 0.108-3.767 0.381-6.004 0.819-2.231 0.437-4.165 0.951-5.802 1.544v0l-0.448-1.247c0.59-0.319 1.666-0.788 3.23-1.407v0c-0.055-1.844-0.436-4.568-1.141-8.173v0l-0.206-1.05c-5.349-6.989-8.66-11.011-9.934-12.066v0c-0.95 0.077-2.022 0.046-3.217-0.094v0l-0.058-1.333c1.381 0.008 3.311-0.23 5.79-0.716 2.48-0.485 4.488-1.018 6.026-1.598v0l0.44 1.208c-1.48 0.663-2.737 1.168-3.77 1.512v0c1.799 3.221 4.078 6.535 6.838 9.942v0c1.83-6.302 2.602-10.18 2.318-11.632z" opacity="1" transform="matrix(1,0,0,1,0,0)" fill="#3f664e" class="wordmark-text-0" data-fill-palette-color="primary" id="text-0"></path></svg></g></svg></g></svg></g></svg></g><g transform="matrix(1,0,0,1,155.21638205792223,0)"><svg viewBox="0 0 85.0872358841555 62.54220314503623" height="62.54220314503623" width="85.0872358841555"><g><svg xmlns="http://www.w3.org/2000/svg" xmlns:xlink="http://www.w3.org/1999/xlink" version="1.1" x="0" y="0" viewBox="4.660196892413094 20.351000000000003 90.67443900708138 66.649" enable-background="new 0 0 100 100" xml:space="preserve" height="62.54220314503623" width="85.0872358841555" class="icon-icon-0" data-fill-palette-color="accent" id="icon-0"><path d="M94.05 51.572L53.179 21.701C51.373 19.901 48.181 19.901 46.374 21.701L6.192 50.883C4.313 52.762 4.092 55.354 5.923 57.283 6.454 57.838 7.141 58.168 7.881 58.33A4.32 4.32 0 0 0 11.134 57.976C11.217 57.941 11.29 57.892 11.371 57.851 11.404 57.828 11.439 57.814 11.473 57.794 11.953 57.542 12.58 57.237 12.967 56.849L18 53.432V83.557C18 85.066 19.063 87 20.575 87H79.405C80.917 87 83 85.066 83 83.561V53.432L87.489 57.022C87.583 57.11 87.537 57.18 87.633 57.258L87.997 57.696C89.687 59.387 92.393 59.387 94.084 57.696S95.739 53.264 94.05 51.572M49 54H64.101C66.115 54 68 54.729 68 56.743V64H49zM37.703 49.552C40.077 49.552 42.091 51.566 42.091 53.941 42.091 56.386 40.077 58.328 37.703 58.328S33.315 56.387 33.315 53.941C33.315 51.565 35.329 49.552 37.703 49.552M35.329 60H43V55.163A2 2 0 0 1 45 53.147C46.152 53.147 47 54.01 47 55.163V60.772C47 62.067 45.759 64 44.536 64H35.329C34.179 64 33.315 63.115 33.315 61.965 33.315 60.885 34.179 60 35.329 60M74 79H70V72H32V79H28V50.984C28 49.689 28.706 48.539 30 48.539S32 49.689 32 50.984V66H70V56.955C70 55.66 70.741 54.58 71.964 54.58 73.259 54.58 74 55.66 74 56.955z" fill="#aec992" data-fill-palette-color="accent"></path></svg></g></svg></g><g></g></svg></g><defs></defs></svg><rect width="395.52" height="129.18199838111664" fill="none" stroke="none" visibility="hidden"></rect></g></svg></g></svg>